<svg xmlns="http://www.w3.org/2000/svg" viewBox="0 0 37.5 20.6">
<path style="fill:#000000;" d="M17.9,6.1c0.5,0.2,1,0.1,1.5,0c0.3,1,0.8,2,1.4,2.4C20.5,11,19.5,12,18.6,12c-1.5,0-2.1-3-2.1-3.6
	C16.5,8.3,17.5,7.6,17.9,6.1z M16.6,15.3c0.2,0.8,0.8,2.9,2.1,2.9c0.9,0,1.9-1.2,2.1-2.8c-0.7-0.4-1-1.4-1.4-2.8
	c-0.4,0.1-1,0.2-1.5,0C17.7,13.9,17.3,14.7,16.6,15.3z M8.5,18.5L8.5,18.5c0.5,0.8,1.6,2.2,2.7,1.7c0.3-0.1,0.4-0.9,0.3-1.7
	C10.6,18,10,17,9.5,15.6c-0.2,0.1-0.5,0.1-0.8,0C8.8,17.1,8.8,18,8.5,18.5z M4,15.7c0.4,2.3,0.5,2.5,0.4,2.8c0.7,1.4,1.5,2,2.4,1.9
	c0.3,0,0.1-0.8-0.3-1.7c0,0-1.3-1-1.9-2.9C4.4,15.7,4.3,15.7,4,15.7z M1.3,15.7c1,4.4,3,4.2,2.9,4c-0.4-0.7-0.8-1-1.3-1.4
	C1.9,17.4,1.3,15.4,1.3,15.7z M13.9,18.5L13.9,18.5c0.5,1.9,1.9,1.9,2.5,1.7c0.7-0.1,1-0.7,1.1-1.9c-0.9-0.6-1.3-2-1.5-2.9
	c-0.3,0.1-0.8,0.1-1.3,0C14.7,16.8,14.6,18,13.9,18.5z M5,15.3c0.4,1,1.7,3,2.6,3c0.4,0,0.6-0.7,0.4-2.9c-0.6-0.4-1.1-1.3-1.5-2.6
	c-0.2,0.1-0.6,0.1-0.9,0C5.4,13.9,5.3,14.7,5,15.3z M1.7,15.3c0.3,0.8,1,2.6,1.9,2.9C4,18.4,4,17.8,3.5,15.4c0,0-0.7-0.6-1.3-2.6
	c-0.1,0-0.3,0-0.4,0C1.8,13.7,1.7,15.1,1.7,15.3z M10,15.3c0.1,0.4,1.1,2.5,2.4,2.8c1.5,0.3,1.6-1.6,1.6-2.7
	c-0.7-0.4-1.3-1.3-1.6-2.6c-0.3,0.1-0.8,0.2-1.4,0C10.9,14.1,10.5,14.9,10,15.3z M9.1,15c0.6,0,1.1-0.9,1.4-2.7
	c-0.6-0.6-1.2-1.5-1.3-3.7c-0.3,0.1-0.6,0.1-0.8,0c-0.3,2-0.6,3.1-1.3,3.8C7.1,13,7.8,15,9.1,15z M2.6,12.4c0.5,2.1,1,2.6,1.5,2.6
	c0.9,0,0.7-1.6,0.8-2.7C4.7,11.8,4,10.7,4,8.5c-0.2,0-0.3,0-0.5,0C2.8,11.8,2.8,11.9,2.6,12.4z M0.6,8.7c-0.2-0.1-1.3,4.3,0.3,6.2
	c0.2,0.2,0.2-2.4,0.2-2.4C0.7,11.5,0.9,8.9,0.6,8.7z M13,12.4c0.1,0.3,0.7,2.6,2.4,2.6c1,0,1.8-1.2,2-2.8c-0.8-0.8-1.3-2-1.5-3.6
	c-0.3,0.1-0.8,0.1-1.3,0C14.2,10.7,13.8,11.8,13,12.4z M4.6,8.3c0.1,1.9,0.5,3.8,1.4,3.8s1.4-2.1,1.7-3.9C7.3,7.9,6.9,7.3,6.9,6.1
	C6.6,6.2,6.2,6.2,6,6C5.9,6.2,5.3,7.9,4.6,8.3z M1.9,12.1c0.5,0,1-3.9,1-3.9C2.7,7.9,2.5,7.3,2.6,6.1c-0.1,0.1-0.3,0-0.4,0
	C1.8,7.3,1.3,8.3,1.3,8.3C1.1,9.4,1.3,12.1,1.9,12.1z M9.8,8.3c0.1,1.3,0.7,3.8,1.9,3.8c1.4,0,1.9-1.9,2.3-3.8
	c-0.7-0.4-1-1.2-1.3-2.3c-0.5,0.1-0.9,0.1-1.3-0.1C11.1,6.9,10.2,8.1,9.8,8.3z M10.8,5.5c-0.3-0.4-0.7-1.2-0.5-2.7
	c-0.3,0-0.5,0-0.7,0C9.1,3.8,8.5,5,7.6,5.7C7.6,5.9,7.7,8,8.8,8C9.5,8.1,10.1,7.1,10.8,5.5z M5.6,2.8c-0.1,0-0.3,0-0.4,0
	c0,0.1-1.4,2.5-1.9,2.9C3,6.7,3,7.9,3.6,8c0.6,0,1-0.5,1.8-2.6C5.3,5,5.1,4.3,5.6,2.8z M2.6,2.9C1.1,4,0.3,7.7,0.7,7.8
	C0.8,7.9,2,6.2,1.9,5.1C1.8,4.4,2.9,2.8,2.6,2.9z M17.4,5.5c-0.4-0.4-0.9-1.2-1.1-2.7c-0.3,0.1-0.8,0.1-1.1,0
	c-0.3,0.9-0.8,2.2-1.8,2.9C13.5,6.7,14,7.9,15,8C16.6,8.1,17.1,6.6,17.4,5.5z M3.2,2.6c-1,1.6-1,2.9-0.6,2.9c0.5,0,1.9-2.6,2.3-3.1
	c-0.1-0.5,1-1.6,0.6-1.7C4.9,0.7,3.5,2.5,3.2,2.6z M28.8,15.6c-0.3,0.1-0.6,0.1-0.8,0c-0.4,1.4-1,2.4-1.9,2.9
	c-0.1,0.7-0.1,1.6,0.3,1.7c1.1,0.4,2.3-0.8,2.7-1.7l0,0C28.7,18,28.7,17.1,28.8,15.6z M33,15.6c-0.8,1.9-1.9,2.9-1.9,2.9
	c-0.5,0.9-0.7,1.7-0.3,1.7c0.9,0,1.7-0.5,2.4-1.9c-0.1-0.3,0-0.5,0.4-2.8C33.3,15.7,33.1,15.7,33,15.6z M34.6,18.3
	c-0.4,0.4-0.8,0.6-1.1,1.4c-0.1,0.2,1.8,0.4,2.9-4C36.2,15.4,35.6,17.4,34.6,18.3z M22.7,15.6c-0.4,0.1-0.8,0.1-1.3,0
	c-0.2,0.9-0.6,2.2-1.5,2.9c0.2,1,0.4,1.7,1.1,1.9c0.5,0.1,1.9,0.1,2.5-1.7l0,0C23,18,22.7,16.8,22.7,15.6z M32,12.8
	c-0.4,0.2-0.7,0.1-0.9,0c-0.3,1.2-0.8,2.2-1.5,2.6c-0.2,2.2,0,2.9,0.4,2.9c0.8,0,2.1-2,2.6-3C32.1,14.7,32,13.9,32,12.8z M35.8,12.9
	c-0.1,0-0.3,0-0.4,0c-0.5,1.9-1.3,2.6-1.3,2.6c-0.5,2.3-0.6,2.9-0.1,2.8c0.8-0.3,1.6-2.1,1.9-2.9C35.8,15.1,35.8,13.7,35.8,12.9z
	 M26.5,12.8c-0.5,0.2-1,0.1-1.4,0c-0.3,1.3-0.8,2.2-1.6,2.6c0,1,0.1,3,1.6,2.7c1.1-0.2,2.3-2.3,2.4-2.8
	C26.9,14.9,26.7,14.1,26.5,12.8z M30.5,12.4c-0.5-0.6-0.8-1.9-1.3-3.8c-0.3,0.1-0.5,0.1-0.8,0c-0.1,2.2-0.7,3.2-1.3,3.7
	c0.2,1.7,0.7,2.7,1.4,2.7C29.5,15,30.4,13,30.5,12.4z M34,8.6c-0.2,0-0.3,0.1-0.5,0c0,2.2-0.5,3.2-0.9,3.7c0.1,1-0.1,2.7,0.8,2.7
	c0.4,0,0.9-0.6,1.5-2.6C34.7,11.9,34.6,11.8,34,8.6z M36.3,12.4c0,0,0,2.6,0.2,2.4c1.6-1.7,0.6-6.3,0.3-6.2
	C36.6,8.9,36.8,11.5,36.3,12.4z M23,8.6c-0.5,0.1-1,0.1-1.3,0c-0.2,1.6-0.7,2.7-1.5,3.6c0.3,1.6,0.9,2.9,2,2.8
	c1.5,0,2.3-2.3,2.4-2.6C23.8,11.8,23.3,10.7,23,8.6z M31.6,6c-0.3,0.2-0.6,0.2-0.9,0.1c0,1.3-0.4,2-0.7,2.3c0.3,1.9,0.7,3.9,1.7,3.9
	c0.8,0,1.4-2,1.4-3.8C32.2,7.9,31.6,6.2,31.6,6z M36.3,8.3c0,0-0.5-0.9-0.9-2.3c-0.1,0.1-0.3,0.1-0.4,0c0.1,1.1-0.2,1.7-0.4,2.2
	c0,0,0.5,3.9,1,3.9C36.2,12.1,36.4,9.4,36.3,8.3z M26.2,6c-0.4,0.2-1,0.2-1.4,0.1c-0.1,1-0.5,1.9-1.1,2.3c0.3,2,0.7,3.9,2.3,3.8
	c1.1,0,1.8-2.5,1.9-3.8C27.2,8.1,26.5,6.9,26.2,6z M28.7,7.9c1,0,1.1-2.1,1.1-2.4c-0.7-0.5-1.4-1.7-1.9-2.8c-0.2,0.1-0.4,0.1-0.7,0
	c0.2,1.5-0.1,2.3-0.5,2.7C27.3,7.1,28,8.1,28.7,7.9z M32,5.5C32.7,7.5,33.1,8,33.7,8c0.6-0.1,0.6-1.3,0.4-2.4
	c-0.5-0.3-1.9-2.8-1.9-2.9c-0.1,0-0.2,0-0.4,0C32.3,4.3,32.1,5,32,5.5z M35.6,5.1c-0.1,0.9,1,2.8,1.1,2.7c0.3-0.1-0.3-3.9-1.9-4.9
	C34.6,2.8,35.7,4.4,35.6,5.1z M22.4,7.9c1-0.1,1.6-1.2,1.7-2.4c-0.8-0.6-1.4-1.9-1.7-2.8c-0.3,0.1-0.8,0.1-1.1,0
	c-0.1,1.5-0.6,2.4-1.1,2.7C20.4,6.6,20.8,8.1,22.4,7.9z M32,0.7c-0.4,0,0.7,1.2,0.6,1.7c0.3,0.5,1.7,3.1,2.3,3.1
	c0.4,0,0.4-1.3-0.7-2.9C34,2.5,32.6,0.7,32,0.7z M9,1c0,0,0.2-0.5-0.1-0.6c-0.5,0-1.9,2-2.6,2.3c-0.1,0.2-1,2.6,0.1,2.8
	C7.3,5.6,8.3,3.7,9,2.6C8.7,2.3,8.8,1.7,9,1z M13.9,0.9c0-0.1,0-0.6-0.5-0.6c-0.6,0-1.5,2-2.4,2.3c-0.2,1.2,0,2.7,0.9,2.8
	c1.4,0.1,2.1-1.6,2.6-2.8C14,2.3,13.9,1.6,13.9,0.9z M28.6,2.6c0.6,1.2,1.6,3,2.6,2.9c1-0.2,0.2-2.6,0.1-2.8c-0.6-0.3-2-2.3-2.6-2.3
	c-0.3,0-0.1,0.5-0.1,0.6C28.8,1.7,28.8,2.3,28.6,2.6z M23.1,2.6c0.4,1.2,1.1,3,2.6,2.8c1-0.1,1.3-1.5,0.9-2.8
	c-0.8-0.3-1.8-2.4-2.4-2.3c-0.5,0-0.5,0.5-0.5,0.6C23.6,1.6,23.5,2.3,23.1,2.6z M18.8,0.3c-1.1,0-0.7,1.9-1.9,2.4
	c0.1,0.9,0.4,2.8,1.8,2.8c1.7,0,1.9-2.3,1.9-2.8C19.7,2.3,19.7,0.3,18.8,0.3z"/>
</svg>
